<?xml version="1.0" standalone="no"?>
<!DOCTYPE svg PUBLIC "-//W3C//DTD SVG 20010904//EN"
 "http://www.w3.org/TR/2001/REC-SVG-20010904/DTD/svg10.dtd">
<svg version="1.0" xmlns="http://www.w3.org/2000/svg"
 width="92.000000pt" height="92.000000pt" viewBox="0 0 92.000000 92.000000"
 preserveAspectRatio="xMidYMid meet">
<metadata>
Created by potrace 1.14, written by Peter Selinger 2001-2017
</metadata>
<g transform="translate(0.000000,92.000000) scale(0.100000,-0.100000)"
fill="#000000" stroke="none">
<path d="M870 464 l0 -456 -32 5 c-18 3 -55 13 -82 23 -40 14 -58 15 -97 8
-55 -12 -74 -5 -83 30 -3 14 -15 28 -26 31 -40 13 -23 41 38 64 33 12 83 42
115 68 30 27 68 56 82 67 55 38 80 140 52 209 -8 18 -17 50 -21 72 -11 58 -63
151 -113 200 -167 167 -483 122 -587 -83 -43 -84 -59 -158 -54 -243 5 -80 17
-109 48 -109 12 0 26 -17 40 -45 28 -57 101 -122 154 -136 23 -6 47 -13 54
-15 27 -7 12 -42 -23 -54 -19 -6 -37 -20 -40 -30 -8 -26 -86 -52 -180 -60 -44
-4 110 -7 343 -8 l422 -2 0 460 c0 253 -2 460 -5 460 -3 0 -5 -205 -5 -456z
m-356 395 c72 -13 118 -38 179 -97 54 -53 96 -132 100 -189 2 -21 8 -48 15
-60 7 -12 12 -28 11 -35 0 -7 -4 -3 -9 10 -30 73 -120 9 -122 -86 -1 -57 0
-60 27 -78 23 -15 27 -15 53 0 l27 17 -23 -20 c-25 -22 -91 -36 -122 -26 -48
15 -65 127 -31 201 34 75 107 107 155 67 21 -18 21 -18 2 5 -41 47 -132 14
-166 -61 -13 -28 -20 -65 -20 -110 0 -63 3 -71 29 -98 16 -16 39 -29 51 -29
19 0 21 -2 9 -16 -29 -35 -113 -74 -160 -74 -25 0 -48 3 -52 6 -3 4 4 21 17
38 62 82 91 198 81 319 -8 87 -17 97 -91 97 l-35 0 20 -21 c10 -11 27 -42 36
-67 27 -78 48 -152 44 -155 -2 -1 -39 -1 -82 1 -74 3 -78 5 -92 33 -9 16 -22
29 -30 29 -27 0 -48 47 -41 92 4 23 12 48 18 55 8 10 7 12 -6 7 -9 -3 -16 -1
-16 5 0 6 16 11 35 11 19 0 35 4 35 9 0 6 -15 8 -32 6 -106 -13 -195 -28 -210
-36 -16 -8 -17 -6 -8 15 50 133 117 197 242 230 66 18 89 19 162 5z m-293
-297 c6 -20 24 -65 40 -99 15 -35 23 -63 18 -63 -14 0 -89 166 -89 197 0 25
18 4 31 -35z m-77 2 c17 -45 -5 -145 -25 -113 -17 28 -9 129 11 129 4 0 11 -7
14 -16z m92 -169 c5 -12 32 -15 156 -15 l149 0 -6 -22 c-11 -37 -55 -121 -79
-152 -23 -28 -24 -28 -50 -11 -14 9 -35 33 -47 52 -27 43 -34 38 -11 -9 9 -20
26 -40 37 -44 37 -13 -25 -17 -68 -4 -42 12 -77 58 -77 101 0 16 -7 30 -17 34
-17 6 -17 7 1 21 19 14 19 14 -2 14 -27 0 -28 -15 -3 -80 22 -57 13 -56 -30 2
-34 48 -39 88 -10 88 10 0 21 9 24 20 6 24 25 26 33 5z m276 -305 c20 -6 39
-17 42 -25 4 -12 -4 -15 -37 -16 l-42 -1 47 -8 c25 -5 55 -13 65 -19 13 -8
-30 -10 -162 -10 -182 0 -205 9 -75 28 55 9 55 9 12 10 -56 1 -52 22 9 38 56
15 95 15 141 3z m233 -70 c14 -6 -2 -9 -50 -9 -48 0 -64 3 -50 9 11 5 34 9 50
9 17 0 39 -4 50 -9z"/>
<path d="M266 770 c7 -8 14 -24 17 -35 4 -19 5 -19 6 1 0 12 -7 28 -16 35 -16
12 -17 12 -7 -1z"/>
<path d="M187 742 c-19 -20 -27 -39 -27 -65 0 -33 3 -37 24 -37 14 0 28 4 31
10 4 6 -4 9 -17 7 -33 -3 -35 30 -4 76 30 44 29 46 -7 9z"/>
<path d="M448 733 c6 -2 18 -2 25 0 6 3 1 5 -13 5 -14 0 -19 -2 -12 -5z"/>
<path d="M528 723 c7 -3 16 -2 19 1 4 3 -2 6 -13 5 -11 0 -14 -3 -6 -6z"/>
<path d="M256 682 l-19 -27 24 22 c12 12 21 24 18 27 -2 2 -13 -8 -23 -22z"/>
</g>
</svg>
